<svg width="128" height="128" viewBox="0 0 128 128" xmlns="http://www.w3.org/2000/svg">
<rect width="128" height="128" fill="#0B0D10"/><path d="M64 12L108 28V63C108 88 92 108 64 120C36 108 20 88 20 63V28L64 12Z" fill="#F4F0E8"/><path d="M64 22L98 34V64C98 83 86 99 64 109C42 99 30 83 30 64V34L64 22Z" fill="#0B0D10"/><path d="M39 68C52 54 76 54 89 68" stroke="#F4F0E8" stroke-width="7"/><path d="M45 75H83" stroke="#C8A45D" stroke-width="6"/><path d="M64 36L70 50L85 51L73 61L77 76L64 68L51 76L55 61L43 51L58 50L64 36Z" fill="#C8A45D"/></svg>